# xmcd
#
# Track frame offsets:
#	150
#	13905
#	28957
#	46210
#	57772
#	69915
#	82665
#	97577
#	114842
#	131050
#
# Disc length: 1962 seconds
#
# Revision: 6
# Processed by: cddbd v1.5.2PL0 Copyright (c) Steve Scherf et al.
# Submitted via: EZCDAudioConverter 6.0.5.1
#
DISCID=7007a80a
DTITLE=Ray Price - American Originals - Ray Price
DYEAR=1990
DGENRE=Country
TTITLE0=Under Your Spell Again
TTITLE1=San Antonio Rose
TTITLE2=Faded Love
TTITLE3=Crazy Arms
TTITLE4=Talk To Your Heart
TTITLE5=Crazy
TTITLE6=Night Life
TTITLE7=For The Good Times
TTITLE8=Funny How Time Slips Away
TTITLE9=Release Me
EXTD=
EXTT0=
EXTT1=
EXTT2=
EXTT3=
EXTT4=
EXTT5=
EXTT6=
EXTT7=
EXTT8=
EXTT9=
PLAYORDER=
